<svg xmlns="http://www.w3.org/2000/svg" height="800" width="1200" viewBox="-30 -58.86675 260 353.2005"><path d="M6.632 20.202c-8.16 10.623-8.36 28.1-2.947 49.757 7.62 30.51 20.77 61.335 26.898 81.927 7.053 21.057 7.1 31.856 9.836 33.255.269.147.582.194.97.194 3.601 0 12.668-5.624 31.85-11.425 20.32-6.914 53.074-14.054 82.371-25.5 20.61-8.071 34.703-18.266 38.775-30.946-6.562 8.864-18.536 16.3-34.363 22.492-29.298 11.455-62.037 18.59-82.367 25.506-19.179 5.806-28.234 11.443-31.839 11.443a2.4 2.4 0 01-.984-.2c-2.74-1.423-2.782-12.207-9.853-33.285-6.126-20.57-19.262-51.407-26.876-81.91-4.161-16.63-5.007-30.812-1.471-41.308m57.555 15.98c-4.71 0-8.968.59-12.625 1.82-14.276 4.375-19.925 17.7-18.825 36.236 1.115 18.505 6.848 37.728 11.106 51.693 4.687 14.177 7.89 23.126 13.712 26.108 1.756.912 3.8 1.313 6.209 1.313 5.578 0 13.05-2.17 23.03-5.24 13.852-4.607 32.84-11.066 48.581-20.884 15.748-9.82 23.352-22.146 18.677-36.321-4.291-13.96-20.83-29.799-43.492-41.486-16.676-8.62-33.255-13.24-46.373-13.24m4.02 112.608c-3.263 0-6.05-.522-8.18-1.632-10.322-5.34-18.501-31.105-18.355-57.586.071-17.292 11.018-26.818 27.432-26.818 8.765 0 19.096 2.731 30.155 8.448 31.748 16.387 39.92 42.147 18.353 57.586-17.082 12.265-36.816 20.002-49.405 20.002" fill="#b9d110"/><path d="M41.521 0c-6.2 0-11.693.76-16.268 2.313C15.577 5.247 9.575 11.45 6.632 20.202c3.339-4.339 8.024-7.542 14.196-9.41 4.602-1.57 10.1-2.325 16.322-2.325 21.3 0 51.02 8.893 81.718 24.745 39.663 20.483 68.942 46.364 75.06 66.952 2.089 6.22 2.15 11.985.457 17.3 5.565-7.517 7.21-16.083 3.958-25.762-6.111-20.562-35.403-46.457-75.055-66.932C92.573 8.91 62.818 0 41.521 0" fill="#b1ce79"/><path d="M37.15 8.467c-6.221 0-11.72.755-16.322 2.325-6.172 1.868-10.857 5.071-14.196 9.41-3.536 10.496-2.69 24.678 1.47 41.309 7.615 30.502 20.751 61.34 26.877 81.91 7.07 21.077 7.114 31.861 9.853 33.285a2.4 2.4 0 00.984.199c3.605 0 12.66-5.637 31.839-11.443 20.33-6.915 53.07-14.051 82.367-25.506 15.827-6.191 27.8-13.628 34.363-22.492 1.694-5.315 1.632-11.08-.458-17.3-6.117-20.588-35.396-46.469-75.059-66.952C88.17 17.36 58.45 8.467 37.15 8.467m26.614 144.885c-2.409 0-4.453-.4-6.21-1.313-5.822-2.982-9.024-11.93-13.711-26.108-4.258-13.965-9.991-33.188-11.106-51.693-1.1-18.535 4.55-31.86 18.825-36.236 3.657-1.23 7.916-1.82 12.625-1.82 13.118 0 29.697 4.62 46.373 13.24 22.662 11.686 39.2 27.526 43.492 41.485 4.675 14.175-2.93 26.502-18.677 36.321-15.74 9.818-34.729 16.277-48.582 20.884-9.979 3.07-17.45 5.24-23.03 5.24" fill="#6ea31b"/><path d="M26.726 215.98c1.5-.184 2.601-.458 3.145-.988.537-.541.48-1.652.126-2.489-1.141-2.669-4.205-4.599-8.12-4.599-5.987 0-10.22 3.86-10.22 9.753l15.069-1.677m3.427 4.205l-18.511 1.886c.726 5.839 5.089 8.023 9.733 8.042H33.24c1.688 0 2.81 1.138 2.81 2.764v2.361H21.256c-8.245 0-15.172-5.361-15.172-16.351 0-9.37 6.547-15.74 15.857-15.74 6.684 0 12.114 4.083 13.593 10.242.89 3.753-1.133 6.308-5.381 6.796m64.578-17.02c1.76 0 3.027.822 3.027 2.575 0 1.754-1.267 2.573-3.027 2.573h-12.89c-2.699.214-3.042 2.924-2.829 4.6.079.551.331 1.002.708 1.317.85.718 2.302.977 3.826 1.243l9.804 1.714c5.156.958 7.107 3.557 7.107 8.22 0 7.224-4.461 9.903-11.441 9.903H72.719s.004-1.802.004-2.58c0-1.758 1.203-2.562 3.03-2.562h12.88c5.035 0 6.33-1.559 6.32-4.322-.005-2.516-.693-3.434-4.056-4.002l-9.928-1.634c-5.033-.816-7.22-3.463-7.484-6.833-.401-4.948 1.643-10.212 8.424-10.212h12.822m29.949 20.61c0 5.466-3.073 7.415-8.307 7.415-4.712 0-7.414-1.697-7.414-5.468 0-2.804 2.387-4.62 5.24-5.117 2.843-.512 7.19-.702 10.482-1.463zm5.535-9.308c0-5.598-1.515-11.32-9.813-11.32h-11.633c-1.82 0-3.019.816-3.019 2.573 0 1.762 1.199 2.574 3.019 2.574h10.817c3.835 0 5.095.89 5.095 3.592v.81c-.223 1.658-2.089 2.047-3.013 2.276-7.774 1.826-18.237-.192-18.237 11.003 0 5.97 5.089 9.482 12.065 9.482.086 0 7.025.358 9.569-3.136 0 0 0 .099.012.297.174 1.755 1.021 2.692 2.819 2.692h2.295l.024-20.843m36.486 9.308c0 5.466-3.08 7.415-8.307 7.415-4.713 0-7.422-1.697-7.422-5.468 0-2.804 2.393-4.62 5.24-5.117 2.85-.512 7.185-.702 10.49-1.463zm5.528-9.308c0-5.598-1.509-11.32-9.814-11.32h-11.627c-1.83 0-3.025.816-3.025 2.573 0 1.762 1.194 2.574 3.025 2.574h10.817c3.829 0 5.096.89 5.096 3.592v.81c-.224 1.658-2.084 2.047-3.025 2.276-7.774 1.826-18.232-.192-18.232 11.003 0 5.97 5.09 9.482 12.072 9.482.092 0 7.02.358 9.562-3.136 0 0 0 .099.025.297.159 1.755.997 2.692 2.8 2.692h2.308l.019-20.843m-31.065-20.033h-3.099c-2.69 0-2.433 2.436-2.433 2.436v29.866l-.012 8.555 5.544.019v-40.876m-87.077 36.061c-4.213 0-5.777-.188-5.777-3.262v-18.939h4.895c1.76 0 3.016-.8 3.016-2.554 0-1.753-1.256-2.575-3.016-2.575H48.31v-8.528l-2.365-.012c-.469.012-.795.03-1.147.061-2.246.248-2.015 2.415-2.015 2.415v6.064h-1.51c-1.752 0-3.026.823-3.026 2.575 0 1.755 1.274 2.555 3.027 2.555h1.509v20.125c0 6.776 4.705 6.872 11.304 6.872 1.088 0 3.262-.017 3.262-.017v-2.205c0-1.577-1.256-2.575-3.262-2.575m136.938 0c-4.211 0-5.77-.188-5.77-3.262v-18.939h4.887c1.76 0 3.012-.8 3.012-2.554 0-1.753-1.251-2.575-3.012-2.575h-4.887v-8.528l-2.362-.012c-.476.012-.804.03-1.157.061-2.24.248-2.021 2.415-2.021 2.415v6.064h-1.497c-1.759 0-3.019.823-3.019 2.575 0 1.755 1.26 2.555 3.019 2.555h1.497v20.125c0 6.776 4.718 6.872 11.31 6.872 1.096 0 3.264-.017 3.264-.017v-2.205c0-1.577-1.254-2.575-3.264-2.575m-123.362 4.802l-.013-32.114-3.092-.018c-2.087.037-2.445 1.337-2.445 2.463v29.669h5.55m-3.386-34.567c1.348 0 2.053.036 2.795-.651.588-.538.59-1.503.59-2.61 0-.648-.012-2.832-.012-2.832h-3.107c-2.085.03-2.43 1.319-2.43 2.448l-.006 3.644h2.17" fill="#7b7678"/></svg>